<mxfile host="65bd71144e">
    <diagram id="kPBsX69qIl9K3M9t728N" name="Page-1">
        <mxGraphModel dx="2024" dy="569" grid="1" gridSize="10" guides="1" tooltips="1" connect="1" arrows="1" fold="1" page="1" pageScale="1" pageWidth="850" pageHeight="1100" math="0" shadow="0">
            <root>
                <mxCell id="0"/>
                <mxCell id="1" parent="0"/>
                <mxCell id="2" value="" style="shape=image;verticalLabelPosition=bottom;labelBackgroundColor=#ffffff;verticalAlign=top;aspect=fixed;imageAspect=0;image=data:image/png,iVBORw0KGgoAAAANSUhEUgAAAQAAAAIICAYAAACByTCWAAAAAXNSR0IArs4c6QAAIABJREFUeF7tnQd0FcUbxS+9994FpCqgYEURBCsqKoqCAiqgqPjHXrBgB0VsKAoovSuKCoodKyiCFZVeDb1JLwL/c3ey5OWR8jZ5bzJ5uXOOx5DMznzz+3bu1J3JlZCQcBgKIiACOZJArowIwP79+7FlyxYUKlQIxYsXR65cubIM3sGDB7Fr1y4cPnwY+fPn92xSEAERiIxAYAHYuXMnVqxYgZIlS3oVr2jRoqhcuXKKInDo0CHkzp3bq5wMvlDw3/yPf2NYuXIlqlatijx58nj/9p/zi+A/z3+HPsd/b9++HcuWLUOpUqWwe/duFCtWzEsrPI/U0g1PLzJsiiUC8UEgsABs3rwZ69evR82aNb0Ku2/fPvz7779eT6Bw4cL4559/vP9v27YN//33n1fJ+d+BAwdQrVo1bN26FexB8G8Ukbx582Lx4sWoXr06ypUrh1WrVnl/K1CgAKpUqeL9m5WUv2MLz/wYj/9RUJgP7alXrx527NiBhIQETwBWr17teYh5MC5FhjbQ5hIlSnjpr1mzxovDv5ctWzY+PKpSiEAAAoEFgBWRlZwtL7vbrKR+ZWfFYmVkr4CicOyxx2LRokU45phjsGHDBq+yMy57DIyzdOlSL87y5ctRq1Yt71mKRYUKFTxRKFOmjJfXcccd57XyTJ8tPSszn2NlZnoUCVb6TZs2eXmUL1/eEwcKDdOmjeytULSWLFni/Y1DB1Z85kchoID4PZAA/BRVBLI1gQwJALvobJVZ4TgkYOVjy8vKxBaXlYsCwUrNCsiWf926dV7F27NnD2rUqOG15qyM/BsrMCsnW20+X7p06SPpMY+GDRt6cfg3CgfFgALgCwrToWhQkCgSnJ/gfwy0r2LFil7eFIK1a9d6v6MgFCxY0LM5X758nkj5Q5Js7VEZLwIBCAQWAHbhWSnZOrOSs7L7LSv/3bhxY6+bn5oAsMVmRaYAMF6dOnWwYMECr3Kyi87KyUpMwfCHAOkJgD8E8Mf5nKNg5aZIUZjq1q3rVXx28/l/iggrO21g5WdPIbV5jAAsFVUEsh2BwALA1p/deVZwjqMrVarkVSRWNE7CsWVmK89KxYrMoQAn5vyZenbp2VKzcrILzrkDzitwbM9WnJWZ6bAXQKFgS86fOb5nfqywzJtpsxLzOcbn0MAP/De79ewhUAiYD8WG4sLgDxMYxx8K0A4FEchpBAILgA+IFdif1WclZ8WlGLCypxYoHhwSsLVNa7kuNO2MOiQ0DYoE86VQURw4BEnLzozmqedEILsRyLAAhBaUFYwVjq1teoFx2YrbHm+z4rNnQuHhKoWCCIgAEFgA2E1XEAERcIMAh8icO8toCCwA7L4riIAIuEGAE/Kcb8tokABklJyeEwEHCEgAHHBCaib43ylw3oMTkFn93YTDqGRaBglIADIILtaP/TF/Pp4Z8Jy3n2HP7t0oWKgQrul4NXp07x7rrJV+DiIgAXDM2ZyQGTNuPIaPGOGtOnBfRJXKlb1dj/8kJKD/00/hwgsucMxqmZNdCUgAHPLc3n378HS//pg2fbq3UenWnj3RocOV3pLnjp07cVXHjjj9tNPQ9+GHHbJapmRnAhIAh7z30CN98eFHH3m7EseMGolqVasms+6+B/p4/x7wTH+HrJYp2ZmABMAB73ET1KuDX8PwkSO93ZAj33zD+wApPDzVrx94NMIjDz3ogNUyIR4ISAAc8OKSpUvRuUtXlC5TBs8PGIAx48aiVq3aaNXyLFSsUBHFihX1rHzy6ae9LySv7dTJAatlQjwQkABksRc3bdqMdpdf7n1j8PxzA9CmdWvs3bsXa9asxYhRIzHnp7m4vmtXdLz6KtzQowce7tPH+wJSQQSiQUACEA2KmUjjlcGvYcTIkbjh+uvQ+7bbjkqJXz++NWUK/v57Aa7p1BFnt2qVidz0qAgkJyAByMI3gicaXdetG/LmyYspb7+FsmXKpGrNnDk/4aG+fdG6VSs0bFAfTZo08b5KjOWBqlyG5AvC+Qh+gKUQfwQkAFnkU0783dLrNvzw44/o3+9pXHj++elaMvOrr5A/fwHUr1cXbw4f4S0V3tzzpnSfy0gEvhj393nQO0OhfPlyeKxv34wko2ccJyAByCIHrV+/Ae07dECtmjUxdvSoiK0Y9OqrOPmkk9Do+OOxfMUKfDlzJurWqYOzWrRAkSJFIk4ntYj8MOTDj2Z4W4+552DmVzOxYOFCPNTHLEEqZI7Azn3AL+a82aiHIvmBptWDJSsBCMYrKrHZ+j/y6GOY/uGHuPuuO9Hl2msjTnf0mLGY/cMPXstcsWIFnHzyydiyeQvmzpvrrRA0PfFE1Khe3TsNiXEiCTxohVuOFy9ZioULF6J589O9A1omTpqMlmedhS6dI7cvkvxycpx/9wDfLI4NgeKFgJYB54clALHxRZqprl23Dm0vvsTb8DNj+rSIKyoT5bwBu//9nn7KO85s5tdfo/8zz6J+vXp4/NG+WLV6NT797HN899133lmGZ7dqiVNPOcU7HzE0cKWBpyN/9/0s/PLLr2jVqiXatr0QP86Zg4EDn0e7dpega+fOuiglyu+HBEDnAWDqe+/h8SefQvdu3fC/XrcGfsVu6307nu3f70iXn98P/PnnX/jm22+xbMVy1K9bDy1anOmdhchzC3fu3IV9+/Z6F6Zw0pATenny8LzDAqhduzZ27tiJD6ZNw09z56Flyxa4uG3bFDciBTY0Aw+89hWwJ53zKdo3BWqmPl+aYq7v/gIs32T+1PU0oFwx4NslwJzl5neXNAHqls+AwQEf2XsgyY6Aj6YbvUA+oFbA6ynUA0gXa/Qj/O/2O/D9rFkYPXKEN5b/9bffcGzt2t5pw5EEds3ZYldKYbcgn+e8wNdffwP2NCpWqIDCRQqjUsVKqFnzGK+3sW7deu+QVI7teU8DDztlV7/DlVdEkn1M41w5FGArmVbodxlw8jHBzHjo/aTKPuRaoHY5YPj3wKSfTDp9LwZaHBsszXiILQGw7EW2yBe1u9SriJ989KE3k89uPXLlQu1atSKyhl8Fvjt1aor7BkIT8O9f8P/PT4x5uvLu3XvQrFlTL+88iTcvxXI5MaJCJUaSAAShlfm4EoDMMwyUwqjRY/DSoEE4p01rDBwwwHuWX/rxBqRmTZtGlNa+/ftx5VVX49abe6b5afDGHcC67UDuXEDVUkCJsHtPd+8HNpmTzlGyMFC0APBHApA3N3BcyMlthw4DizcA+/8DONNcowyQx1zLGPUQKgCf3ZF68qG2lyoMFEs8T5bfSqz9F/jvkLGxUglTfvUAUmYpAYj6K5x6gpz9v/nWXt5EG7/2a9yokReZY/h+zzyDB+67L+IJQR6lzq8Hu3e7ASeecEKyTFduAV6dCfwattx0ei3g5pZA5RIm+pcLgf4zzM8dTwaWbADmrjRiMfI68/vZy4Bh3wL/bE3Kgs93PxM4K+CMcySoIxWAKT8DQ78xKT56MXBmYvedY+zuY4ANO4DSRYDhXY2wSQAkAJG8fzGNwyO+2l3eHnv37MEXn32aLC/OCXAi76Ybe0Rsw8ZNm7zNRJPGj/MuK/HDDaOTV9jQBKuXNpUiXADKFAE27zK/9wXgk7+AgcnNTGbb/ecD5zSI2NyIIsa7AGgVIAevAnDCrXmLs7yr0CZPGH9UhRg5erQ3IXdLz57JKnRaNefzL75ALuRCmzatvWgzF5qWkZX5jjbA2fWAff8Bj00H/lrjTTV4rXuVksl7AOwuc3a8YWWgQF4zm9xjLLDuX9OCcuKN4rFlN/DoB8DqrUCF4sDQzmZYkFLoNTHl3/e5wIhMSiFUAJhfeGBLf0NzILv2ACQAOVgA2PXvecutOKN5cwwc8Ky3HBfaclMgXh861Fvf79K5MyqUT39dincldrn+Bk9QQi8s4bidY19W/q27gJGzgS8XmOr0/JVA46rJBeC0WsCT7ZKq26INQK8J5t8cHlxxYtLfZvwJjPjepD+ss5kTSCmc+1LKv/dn4dMTgJT+fv5xwD3nSgBSYqONQBF1MrMuEo/7evudd7wlt6pVq+DLmV+hXNmy3p2GnJUvXaoUihUthlk/zMZHMz7G0088gZNOauZdO57WLH2v3r3R88Ybj8wpbNkFTJhjKviOvUeXNyUB6NAMuKlFUtypvwJck08vDGgPnJjK9tPxc1J+uu3xACfu0hMAxgsPnJw8r2H2FQD6g/MssQiF8wOn1gyWsiYBg/HKVOweN/XE3Hnz0Of++3H1VR28CxnYgvMsgGnTP0SVKpXRpHETVKhQ3luumzV7trdLb9OWLahUoYK3bMdryBs2aIDatWsdEYW5c+dh4eLFuLZTR29zy/OfAbv2GVP5UtStYFrrn1eZ3wUVAE6mha8g+CDuOS+6G2jifQ4gUy9QDB6WAMQAampJnnJ6c6/Sv/TC82jVsuVR0Sa/9Za3pbdRo0ZH7j7kll1+MciNQtzmm5CwBkuWLvFE49xzzvE+AvIq9Ysv4vbed6LrSGDjTrMsdnsb4MzaZjls1Gxg/I+RC8BPK4EHp5r4d7YB2poFCy8cTFxiiwW6jAjAjS2Aq5oZa7bvBXqMAbbu1ipAJP6RAERCKQpxuALQ7JRTvZRGDn/zqKU7P4tRY8Zg0aLF6PfUk97W3dt690af+x9A5cqVvKFAaBgxchRWrV6FRx95BAMGDsRtve9F5xEAvzjjBBrH2vnymHmAm8YBa7ZFLgDsQXQZaYYQXPZ7tRNQpADAuYVRs4DJc4GKJYDnrgAqRvFm9EgFIHSFonhB4LVrAI6BaRu3/TJoGTD9F1cCkD6jqMTg4Rqnn2la67QEgHsF+j/7LO6+805vu+74CRNwTadr8HDfvt7GIf98QKbD/QP8puDuO+/AK4MH45GHHvZm7ldtMV3+ehXNRpgVm4Blifvg+VwkQwBuqHn9G2DqL0AumMrOzUL7DgDcZ8BeAEVmcCegYBTPColUANjCc73fn+PgUIdlpl2HAXA/gAQg/VdXApA+o6jE4Mz+qc3P8NJ6c9hQnNQssc8aljpb/bvvvQ8vPj8QMz75BMdUr+5dFMKNP68Metnbuhsapr73vnemwOS33/Z6DSs2A49NAxISW3vG5ZJftzOAJz+MvAfg5zF6tplwY4XyA3cKNqkGcB9AapN5GYUWqQCwkk+ZB7w1F9iW+O0AlyuvOgmYMd/sBnRRALiDcdH6jNJJ+7lC+YF6AS/flgDExhcppsoeAHsC995zd6on++7ctQsTJ03Cjd27eyfy8PsAHhf+wXtTU1wWXLxkCd5//wNwUxC/EPTDvJXAss1A9VJJM8PcGszArjxbTA4NtidWHrbi/nbacOPZqvIbdm4bZnebH+KwcsUi+DYybX6xl15gheL2ZQpU89pmyMNVENpMrSxd2Ox92Lk36StDloFfzrH34Asbyx7NnkxqdmsfQA7eB/D8Cy9i7PjxaHvhhV5rnVKYNPktnNCkifcFX99HH8OixYtx8UUX4cEH7k8xPnsMnDxs1rQZ6taNwd7c9Gqg/h6IgAQgBwsAT9vp1LkLqlap4rXoKQVuFOL9f9wQ9PaUd7zPecePHYMyaRwYGugNVOQsJcDJ1fkJsTGBQwBu8AoSNAQIQiuTcQ8eOoQrruyAFStX4rZbb/WOAg+f2d+8eTNGjhqNcRMmeH97/bXBOOWkkzKZsx4XgZQJSAAsvxkTJk3CgOcGept4eOHH7b3/l8yCH3+cg3sfuB/bt+9A/fr1MWrEcBSM8Gw/y0VRdnFAQAKQBU686557vG3ADI0bN/K2BhcrWhQrVq7CpMmTvfV/nvk/fNhQlC0b8IynLCiPssy+BCQAWeA77u67uVcvzJ//p3ckV3jgRRzDhryO6tWqZYF1yjInEZAAZJG3uYnnt99/x4svD8Kff/7pWcGvA7m9947e/0P5CL4EzCLTlW0cEZAAZLEzuUV467Zt3jcCPBS0eLEIFr+z2GZlHz8EJADx40uVRAQCE5AABEamB0QgfghIAOLHlyqJCAQmIAEIjEwPiED8EJAAxI8vVRIRCExAAhAYmR4QgfghIAGIH1+qJCIQmIAEIDAyPSAC8UNAAhA/vlRJRCAwAQlAYGR6QATih4AEIH58qZKIQGACEoDAyPSACMQPAQlA/PhSJRGBwAQkAIGR6QERiB8CEoD48aVKIgKBCUgAAiPTAyIQPwQkAPHjS5VEBAITkAAERqYHRCB+CEgA4seXKokIBCbgpADwCmr+pyACIpBxAnlymXsR0wpOCsDvCcDKzRkvuJ4UAREAmlY3N0NnWwEoWxQokFeuFAERCEKAF5Du3BcHAnBG7dhdQx0EqOKKQHYi8OdaYNlGCUB28plsFYGoEZAARA2lEhIBuwSWbgQ4B7ZoPbBzL3DwMMChcKXiQL2KplVPL0gA0iOkv4uAQwQOHwbW/Au89Dnw6z9pG1auGHDXOUCTqkC+PCnHlQA45FyZIgLpERjxPTD1F2Dv0ffEpvhontzAKccAT7STAKTHVn8XAWcJ7P8PeHUmMMPcDRs4NKgEPNkOKFEo+aPqAQRGqQdEwD6BGfOBF78AOATIaDi7HnDf+UDe3EkpSAAySlPPiYAlAn+tBe56Gzh4KPMZ3tEGuKiRBCDzJJWCCFgi8NynwKd/HZ0ZN751Ohn4cD6wcUfS39nSM8xcePQzx5QB3ugiAbDkOmUjApkjcOAgcMUQYM+B5OmwG3/PeUCb+sDu/cDN44H124HTagF9LzK9hT7vAX8kHD1sePZyoGkNk56GAJnzj54WgZgSYCveb8bRWdQoA7x+TdLy3oYdwPTfgeubA7kTP+qheFwzHNi2O/nzLesCD7eVAMTUcUpcBKJBYMAnwGd/p5zSOQ3MOn9Ka/wbdwIPvQcs33T0s6UKAxN7AFwiVA8gGl5SGiIQIwJ3vAX8uSb1xNmaP3Rh8k95+XHPfe8Aizek/Fzh/MCkHkCh/BKAGLlNyYpAdAikJwDsBdx3XnIB4Bd+nBPYtDNlG1jxJ3QHihaQAETHS0pFBGJEYOBnwCepbP65uDHQq1XydX3fjNVbgdsnAzv2Hm0YK/6UnhoCxMhlSlYEokcgtUnA6qWBIdcmjf//2Qp8twToeHJS3mv/BW4cC+wL2zZ8ak3gqUs1CRg9LyklEYgRgf8OAe0GA5zRDw2c6b/zHOCC48wyYPcxwJZdQLsmplfASs/hw9INQPjmweeuAE6oJgGIkcuUrAhEl8AzHwNfLDg6zfx5gUubmL+x8vvhyqZAwjZg9rKjn2HPYXjXpN9rFSC6vlJqIhB1AgvWma3A4b2AjGR0a0vg8hMlABlhp2dEIMsITP8DePmLzGXPJcMHL0zaKMTU1APIHFM9LQJWCPBz4Be+AL5IZVNQekbULAsMaA+ULJw8pgQgPXL6uwg4RGDsD8DEnyIfDnCykAfm9r045UJIABxyrkwRgUgI8KOfPlMBrvWnFbje3+8ycz6g/31AeHwJQCTEFUcEHCSwaAOweL3ZKsxVAH4BWKYocGx5oH4FoH6llDcJhRZFAuCgY2WSCNgiIAGwRVr5iICDBCQADjpFJomALQISAFuklY8IOEhAAuCgU2SSCNgiIAGIIumF64EflwFLNwGHDgPVSpkz22qXi2ImSsojwLPuOAvO069a1jGz36GB/LlHfvteMxN+bgOAB2EoJCcgAYjCG8Evr3hpw8epfLfNL7RuaZn+kkwUTIlaEn+vA1ZuNsmdWA2oUDxqSUcloVGzgfE/mqSaVgOeuiz50Vj8iu7WCeZIrIL5gGGdgUolopJ1XCUiAcikO/mp5f3vAL+sNgmxteFXWgwUBv8s98tPAG5tlcnMLD7+2lfA1F9NhtxF1uJYi5lHkFWoADD6Dc2Ba05JelACEAFEfQsQGaS0Ym3eZb7F3rUPKFbQXL9Uq5zpmnKnFnds8YgmHsA45gagfLHM58l94XzBw7u0FBz+jXZEErbtAYoVMLaFhyACsHW3SSdvKhdQhqfN7vn2PUfvS/d/T/tTsik0nXABKF7QfObq73WPVABoBwWbvYRIA31dpMDRsVP7fXhM8uLBnC4E9QAy6QXe1Np9tKmQVUqaSxdCT2n9aD6wJPFwxqtPNj+/8Lk5q715beCec5MM2LwTuHmC6TWwyz24EzDuR+C9xJa4zwXAN4vNhQ+s7Jxb4NddXhf3W2DWUrNHvGopcyjESYlnv7M7zxNiGdo1BupUAAbPBHhyLJ9l684hCisex8w9xgA8WNL//JRnyLFn88zlQN0KJh1+b84u+E8rk46dpj08puq8Bkm9IF5d/cBU80yX04B8uc1edh5jzXvqbmoB8Fy7t+YCH/xmbOIWVg6brjs99S2s4QLA9FluMqMwpiUAPD1n2u/AJ38Z4Wbg8KBVXYA9tVJFzO9o06S55meeu/fbP8C0P4B9BwB+V3/veUDF4sDw74EvFxrxrVzSXNZxfsPk5/Tx2Uk/mTTIlQJ3ei3gqpOABhUz+RJm4nEJQCbg8VFWWq8HsN9Ukv+dDfCzywL5Uh7zcx93tzHmZeEkIQXDb+0GzQSm/WYMeqiteSHf/A6YnPgSNqsO/MyhxuGkU1744vJLLx7+EH5v3OjrzQtJAeg9yaTLa6G+XGBeQt4n7z/De+VHXgfsPwhcO9zYxxaZgfblygU81x44vgqwYrM5asoPvKGGFc4f7jCP3q1N5aUA9JpoYvL0Gp5vx7T8tPls51MB3nob+nvGf/Qi4Mw6KTsoVAAoJOxlMVA0rj3V2JLSHADj3TTObJ1lfgXzGg4sL8PJxwBPX2r+NuYHgB/fMHB7LU/XYdculHPT6sAvq5L/nuV+tRNQp7x5du5K0xP0WbKB+O+gYcafebQXBSUrggQgk9T5oj3xoWl9/cAXskwRgDeytj0+qdXk3/ny3DUFmJ8A5M8DTLwRYPeVFY83wOw9YLrTk28yL0eoALCy8xx4tv68Lsp/6VnJ72xjnh36LcAWjuH2NsDFjZILAH/PU2RoF1t7psPWmIEtGlvjVVuM6Hye+OnpzS0Big9bO/YYHp2WVF5Wap5Dx7z7zwBWbjFpPXIRcFad5ALA37PFP64y8PrXAA+6YGCF6XEm0LASMOVnc7YdQ/jpNaGuChWA2842V2dRbCjC/ACmUdWUBYAt/6AvTUpdTwMuON5U/offN9xoC0WZeYcKQJH8wG2tgaolAZ7Qwx4QQ9GCRvQrFTe/Z4+QofsZhgvTvnEcsGab6RU9fokRfg4d+35gfMh/UwT8uaNMvpKBHpcABMKVcmRW3olzgA//ADi+Cw+8n53XOPnjvl9XA/e+Y2Ld3tp0m1lx2PVmYKvybHvzc6gAsJvePvE0F3a/WQkYbj4LuKKp+fmtecAb35qfr09sDUN7ABQbzkX4Y9j3fzMrGAyn1QSeTDwsMrU5APZ4Or5p4lPkRl2fNH5mz6L/x+ZvXHbjTbShPQAK4qCrzd/J6aph5mcKG21iYIVpPyTpIMvP7jC/Dw+hAsBhFEWQp+YwsLV+oYM5FTd8FYDiybwpWLwnj4E/P/kRMGe5+Td7AKfUTC4AoZOM7/5iBIzh2lPMbTwMvMCDF3kw0B/0C5cqe00wvwv1E/89erYZ4rEhGNbFDCFtBwlAFImzS8cvs7gcyG4h1Z2/YyhdBBjfPWlY0OlNc247W5o3uwLfLwEen27iskXhGJghVABYOVlJGTgvMPgr87MvIvw5tEKnJAChlZzxQ7vzx5YDXr/WpJmaAHy/FHhsmolzXkPTa/ADew4cDjGwNX/56uQCwDKxbH4496Xkcf3ft3sN2LPf/CtSATj/ODOH8OpXppd1SWOzV4DlC10G5KiGE38sx08rgKUbjR9Cj9tKSQBCb9XlvM6Lnxv7bmsFXHqC+ZkrQbyQg8EXgAlzgJGzksqc2k8UrEZV0o8X7RgSgGgTTUyPLc267aay+F3yAVeYNXWGJz80E3oMY7uZiv71ItMNfKdnUqsabQHg+Jwvsx9CW3R2RUdcZ/6SmgBwsotdfYYOzUyX3g/s/l430vzLv4U2tAcQawHgcOweDq/WmDF8nlxGgEMFgLfl+Cszvt2cNOQcCAWMIZoCEOq/tF61/pcBJx0To5cxjWQlAJlk/vY8M6PMwAMXeTtraAi9240z9v7VzaEVievsL3xmZt7DW9VoC0DNMsCQzkmz6/NWJs3Sc2z+0lVpC8DvCcDdiV3tE6oCz12ZVFq2uH43nHMGz7S32wOgJWzxaUPohRi+AHAJ9uo3TM+My4XskjeuYnpno3nSzpzoC8DnC4BnE4dFvJCTE8QuBQlAJr3Bl/7uKabbye48L1zgJCADJ9e4/OZPsoX2ADjW5c2tfBm5tMaWkoFLbc0Sl+/472gLANOkjaygnP3mzbP+BCaX6TgxxhDaA2A3n8LlL29eOTRpApLdfHb32YXm3IO/eejqk8zEns0egO9K3pL7cuJEH3/nCwDnPy573cRqUhUYmChenMOhnzg3wxDNHgDP7O8wzMxtsFdEXuxx8H3hROvPq8ySL+cYKES2gwQgk8Tp4B5jgY2JM+l0LmeMOdZk5fbHllxbHt8t+R6BUbOA8Ymtjm8GL20M3dcebQFgZeAmJb5s7DJTnPwlOU5EsYfAwIpMEWBgeRjfHx6895vZR+D9rYARPra4nOlmWhRAXl1drljWCAC7/Rym+EMsXwBY0S7j/MIBMxfD3hrX4LmEymGDH6IpAOTBVZMflplhCXshFEyuIizbaIYo5MQlWC6J2g4SgCgQ544/zgpzUik8+Bs+OPkVrvChvQc+xzVoLmGFhmgLAJfmWAFCbWUl7tkCuPD4pJwpXhxPs0vth+c7mC4z17DHzQHe+dnMoIeGGqWBPhcmfQCVFT0A2sOJvp6JF2SGzgHMWQE89aFh4AeuQvC6LH/DVTQFgHlQHF+ZaTZwhQfuFeAkLs/ty4ogAYgidU72cQWAd7Kx5T+mLNCqjtkanFLgOjzHpKxQXH/mja2/xzL5AAAgAElEQVThX7VxCc/fScjlRP+jHC5v+a0WK2WNxJabFZbCwlC/otmMEroMSAHgGj2XrBiPk1+t65lddOGB3dZvl5h47D5zfiI0Hsv76d9Awlazi5Ddan+Ow0+LQuK3xOwCh850+3MnpQsDZ4R8azDjT8OEgbP5KQV+eekPm3jNFScwwwP5kBNbe469/a3TtIlzN2RFRtwTwfkX7tJjoBiwpWb6zIehcVWA4sbAyUI/LjdG+b0mrib4t/HQ58dVSm4RK9vMBWbVoURhs6LD3ZqhO0ej+DpGlJQEICJMsYnE8R+3yXI8WKssMLRzbPJJSQBik5NSzW4EJABZ4DHOpD8x3exD9/cJcDmNy2qxCBKAWFCNjzQlAFngR+6W88aDh80kGrfT9jwrdoZIAGLHNrunLAHIAg9yUsi/s53bQLmfPLWLG6JhHsfT/PSXgRuNOJ5XEAESkADoPRCBHExAApCDna+ii4AEQO+ACORgAhKAHOx8FV0EJAB6B0QgBxOQAORg56voIiAB0DsgAjmYgAQgBztfRRcBCYDeARHIwQQkADnY+Sq6CEgA9A6IQA4mIAHIwc5X0UVAAqB3QARyMAEJQA52voouAhKATL4DPFiTh3qs+9dcDMHDHkOPpM5k8no8hxDgBazVS5nj43hKNI8J41FmsQ4SgAwSZkXnVWCs9Kz8PFNOQQSiQYCHmPKsRp5XyHsc+f9YBQlAQLJLNgIf/WFuueV58goiEGsCPEiV9yzw1OhoHxwjAYjQe6zsY2YnXdUd4WOKJgJRI9C8trkFmrcaRStIACIgyWOgeZcfb/ANvRs+gkcVRQSiSoDHlVMEonWPoAQgHffwbHhen+XfBx9VbyoxEcgAgaIFzNXrp4fdQ5mBpHQmYFrQNu8Cbh6XdKBmRgDrGRGIFYEn2x19GW3QvNQDSIUYr7q+8y1gy66gSBVfBOwQ4J2NT7QztxZlNEgAUiH3+HTguyUZxarnRMAOAV5X9kpHgPsIMhIkAClQ++A3c5mjgghkBwLcK9Crlbl9OGiQAIQR46We3UYD67YHRan4IpA1BLg34NVO5iLYoEECEEaMu/te+iIoRsUXgawl0K4JwCvogwYJQAgxXtZ52etBEWbP+LyqmxtLQsOOfcDabeb6a66A8DuHrA4tjgXuOgcY+q25ep2BV4ZzYxZ3YyoYArzybXy34JuEJAAhb9Cvq4F738kZr1TLusDDbVMu654D5huHgZ9m7sMmrlff2AKYvRT4YXnGuF57CnB9c+CLBcAzH5s0xnUDaOONYzOWZrw+RU7kFSRIAEJojfsRGD07CL7sG9cXgKc+AuauNOUokBeoWNz0DC4/wex8vOMtYP9/GStnmSLAyOvNFuopP2csDdp0bHlg8YYkOyQAKbNsUhV47kogyFygBCCE5T1TgN/+ydiLmt2e8gWg7wfA7GVHW39RI6B3a2D6H8CrX3o3mScLhfMDxQuZT1Y5dOLtw6HbpNn6U0xevAp4e575cpLd9tBPpTlrXaIQwPVsBn5R+W/iLcZ+Zrw9uVhBYPtegBO0afUA8uQGShcxQsbhy4YdbgxjbL0bFYoDY24I9sGQBCDEO5e+Buzeb8tdWZtPegLAyvnEJcApNYGuI4H1IasiZ9QGbm8DFMpnXjZWbIrI4K+MGDDccx5w5rEAhYI9CFZeDgOeTezGM86955ntrKywFBhemU6hGPF9EptTawIPXAA8Og34PVGcU+oBVCkJPHcFUKSAEaVDh4HVW82Qzrcpa4nHPnd+RvzeLQCFMNIgAUgkxZap/ZBIsWX/eOkJAEvICvzoxcD97wI/rzJlPqsOcP/55l75T/8yrTY/V23XGPg9AXjoPRPvuMpAzTLALS2Bb5eYeQC2yH+vMxX+4YuAk2sAH/wOzF1h1rCZ3/kNgUEzgem/m3Q4HHn8EuC+d4FfEm0IFwAK0ZDOQMG8wPDvjVjVKAPc0Bz4cw3w8PvZ31+RlmBCD6Bc0UhjGz8u2wg0rQ5QRNMKmzZtwv79GW8hcyUkJIT3JNPMsHLlyumWhC/dys0AWyV2/zIalm8GbspBk0qRCECDisCgjsDTHwFfLTKt/RtdgK27AQ6XQsM1p5gK98BUYF7inEJqcwCssNeeaoYDk+cmpcLewvjuwN9rgQcThSQSAWhdH+hzAdBrIsCPt/xwbgOA3WLO7eSU8GpHoF6AA0QkAIlvhgTg6CrCo6kGdwJe/tK0yCULAW/dBDz3KfDZ38njs9s5pScwZznQP7GbH3QSkMdgTb7RdN1vnxx5D6BZDeCZy81cw7Bvc0pVT7mcHAadUC1yBhKARFb/bAVuGB05uOweM5IewPGVzSSe3wNoXgt4vJ0Zi6d0BBq7kfxs+ubxhk56AsCPWE45xrTS7L0xPruhf60NJgAc83Oe4Ky6wJptwMJ1Jg3OS3DYkZPCoKuBBpUiL7EEIJEVX+jLc8gmIBY5EgHwu9Z3vQ38kQCc19BM3C3akPrEGmfxKRhpCQDnAPgVG1uqtf+amf9NO80KTLczzJAuSA+AeXEjTOt6AG3meXoUFa4g8JsOftuRU8LEHqb8kQYJQAipK4aY5aacECIRgCHXArXLAR2GAdt2A9VLA8O7Jp8UTItVaj0A9ixeuAoY+wMw6SezVMdZewYOI9iLCCoAvh2cTGSPgKsBHBbULGuEPSes7nAOZeotWgbMcP3lUtOspRl+PFs9mJ4AcA8At9wO+hKYljgjz4rFFubH5cDAz5IXlxWOLfCsZcDmnWn3AM5pYFYSuMmIs/R+4Fl3Y64HOB8TRAA4V8EPYbiEGBraNjLHZ/k9mGzloAwYy+HTiOskABlAl9j6/AwM/SbDj2erB30BeO3rpM1PrODcvMMZfbb8PA+B5yKEBn5wcsFx5oMpdtm5Jbd4QeB/rYETqprVgfmJlZoVekRXYOF64PWvTe+KPQnu7HvlarMEyFUArtOz23plU+CixmYVIIgAcPtrl9OAZz8xNrG1r1AMuPtcoHoZs49he9gGo2zlrAiN5Z6Jpy6NMHJiNA0BQngtWAf8b1IwgNk1ti8A3L0XujbrHzs95Btg6i9JXXO/nPw71+VPq2UuROHD7HZzFYDdea7Dh4ZHLjJ7B9jN/36pOVyVcV/oADSsZNKgDUx3fgJQu7z5GCmIAHg2tQNYAZiPnx7zoSh8HrZikV19lp7d3HPR/sT0YiX/uwQghAd3rPUcD3BFIN4DW1x2nUPDoUPAlt3A6i2mZU8tsGLxsgqOr0sXTtrgw8m7lELjKkDVUmaib84KE4O9DW4W4nwABYiVnn9jL2LvAbOpiIGrA8yLG4i2Jh7PxtUGBn9zEn/m+Jf7Fo4pazYa8Sg39gY4yZgTAk8EmtjdzH0ECRKAMFpcOnps2tEtXxCoiisCtglwY9X1pwfPVQIQxoxdSK5jr0ilNQuOWE+IQOwJjL4BqFwieD4SgBSY8aOVR3LQ/vHgr42ecInAnecAbY/PmEUSgFS4+dtfM4ZVT4mAHQL8EIvbf4N8ARhqmQQgFT9xEqznuJwziWTndVUu0SRQqjAwrHPwY8AkABF6gVtU73sHWLYpwgcUTQQsESiQD+C+/1plM5ehegDp8OPGFW6G8Te3ZA63nhaBzBPgdw79Lweqlcp8WhKACBju2W/2vy9Yr9uBI8ClKDEkwB2a/MYhWleESwAidNbBw+Zbd56Um1M+GIoQjaJZIMDjvnjgyoXHm6PYohUkAAFJ8rz8d342++Rzyi6zgIgUPYoEONHHbdtXNQPKFYtiwolJSQAywZRbTUfNMsdn80BLbiJy4TKNTBRJj2YhAX5TwVORuE2a4/uLGwM81iyjS3yRFEUCEAmlNOLww5Nd+81Xblw65Dl3OeUU2kyi0+MhBNjF5/Hn3MvPI9V5/FpGLvsMClUCEJSY4otAHBGQAMSRM1UUEQhKQAIQlJjii0AcEZAAxJEzVRQRCEpAAhCUmOKLQBwRkADEkTNVFBEISkACEJSY4otAHBGQAMSRM1UUEQhKQAIQlJjii0AcEZAAxJEzVRQRCEpAAhCUmOKLQBwRkADEkTNVFBEISkACEJSY4otAHBGQAMSRM1UUEQhKQAIQlJjii0AcEZAAxJEzVRQRCEpAAhCUmOKLQBwRkADEkTNVFBEISkACEJSY4otAHBGQAMSRM1UUEQhKQAIQlJjii0AcEZAAxJEzVRQRCEpAAhCUmOKLQBwRkADEkTNVFBEISkACEJSY4otAHBGQAMSRM1UUEQhKQAIQlJjii0AcEZAAxJEzVRQRCEogbgQgaMEVXwREIIlA0+pAlZJpE9m0aRP279+fYWy5EhISDgd5unLlyulG/2stsGpLutEUQQREIA0CTaoClUpkQwHg9dyBVEWvgQiIwFEEeBV5rnS4ONkDkC9FQATsEJAA2OGsXETASQISACfdIqNEwA4BCYAdzspFBJwkIAFw0i0ySgTsEJAA2OGsXETASQISACfdIqNEwA4BCYAdzspFBJwkIAFw0i0ySgTsEJAA2OGsXETASQISACfdIqNEwA4BCYAdzspFBJwkIAFw0i0ySgTsEJAA2OGsXETASQISACfdIqNEwA4BCYAdzspFBJwkIAFw0i0ySgTsEJAA2OGsXETASQISACfdIqNEwA4BCYAdzspFBJwkIAFw0i0ySgTsEJAA2OGsXETASQISACfdIqNEwA4BCYAdzspFBJwkIAFw0i0ySgTsEJAA2OGsXETASQISACfdIqNEwA4BCYAdzspFBJwkIAFw0i0ySgTsEJAA2OGsXETASQISACfdIqNEwA4BCYAdzspFBJwkIAFw0i0ySgTsEJAA2OGsXETASQISACfdIqNEwA4BCYAdzspFBJwkIAFw0i0ySgTsEJAA2OGsXETASQISACfdIqNEwA4BCYAdzspFBJwkIAFw0i0ySgTsEJAA2OGsXETASQISACfdIqNEwA4BCYAdzspFBJwkIAFw0i0ySgTsEJAA2OGsXETASQISACfdIqNEwA4BCYAdzspFBJwkIAFw0i0ySgTsEJAA2OGsXETASQISACfdIqNEwA4BCYAdzspFBJwkIAFw0i0ySgTsEJAA2OGsXETASQISACfdIqNEwA4BCYAdzspFBJwkIAFw0i0ySgTsEJAA2OGsXETASQISACfdIqNEwA4BCYAdzspFBJwkIAFw0i0ySgTsEJAA2OGsXETASQISACfdIqNEwA4BCYAdzspFBJwkIAFw0i0ySgTsEJAA2OGsXETASQISACfdIqNEwA4BCYAdzspFBJwkIAFw0i0ySgTsEJAA2OGsXETASQISACfdIqNEwA4BCYAdzspFBJwkIAFw0i0ySgTsEJAA2OGsXETASQISACfdIqNEwA4BCYAdzspFBJwkIAFw0i0ySgTsEJAA2OGsXETASQISACfdIqNEwA4BCYAdzspFBJwkIAFw0i0ySgTsEJAA2OGsXETASQISACfdIqNEwA4BCYAdzspFBJwkIAFw0i0ySgTsEJAA2OGsXETASQISACfdIqNEwA4BCYAdzspFBJwkIAFw0i0ySgTsEJAA2OGsXETASQISACfdIqNEwA4BCYAdzspFBJwkIAFw0i0ySgTsEJAA2OGsXETASQISACfdIqNEwA4BCYAdzspFBJwkIAFw0i0ySgTsEJAA2OGsXETASQISACfdIqNEwA4BCYAdzspFBJwkIAFw0i0ySgTsEJAA2OGsXETASQISACfdIqNEwA4BCYAdzspFBJwkIAFw0i0ySgTsEJAA2OGsXETASQISACfdIqNEwA4BCYAdzspFBJwkIAFw0i0ySgTsEJAA2OGsXETASQISACfdIqNEwA4BCYAdzspFBJwkIAFw0i0ySgTsEJAA2OGsXETASQISACfdIqNEwA4BCYAdzspFBJwkIAFw0i0ySgTsEJAA2OGsXETASQISACfdIqNEwA4BCYAdzspFBJwkIAFw0i0ySgTsEJAA2OGsXETASQISACfdIqNEwA4BCYAdzspFBJwkIAFw0i0ySgTsEJAA2OGsXETASQISACfdIqNEwA4BCYAdzspFBJwkIAFw0i0ySgTsEJAA2OGsXETASQISACfdIqNEwA4BCYAdzspFBJwkIAFw0i0ySgTsEJAA2OGsXETASQISACfdIqNEwA4BCYAdzspFBJwkIAFw0i0ySgTsEJAA2OGsXETASQISACfdIqNEwA4BCYAdzspFBJwkIAFw0i0ySgTsEJAA2OGsXETASQISACfdIqNEwA4BCYAdzspFBJwkIAFw0i0ySgTsEJAA2OGsXETASQISACfdIqNEwA4BCYAdzspFBJwkIAFw0i0ySgTsEJAA2OGsXETASQISACfdIqNEwA4BCYAdzspFBJwkIAFw0i0ySgTsEJAA2OGsXETASQISACfdIqNEwA4BCYAdzspFBJwkIAFw0i0ySgTsEJAA2OGsXETASQISACfdIqNEwA4BCYAdzspFBJwkIAFw0i0ySgTsEJAA2OGsXETASQISACfdIqNEwA4BCYAdzspFBJwkIAFw0i0ySgTsEJAA2OGsXETASQISACfdIqNEwA4BCYAdzspFBJwkIAFw0i0ySgTsEJAA2OGsXETASQISACfdIqNEwA4BCYAdzspFBJwkIAFw0i0ySgTsEJAA2OGsXETASQISACfdIqNEwA4BCYAdzspFBJwkIAFw0i0ySgTsEJAA2OGsXETASQISACfdIqNEwA4BCYAdzspFBJwkIAFw0i0ySgTsEJAA2OGsXETASQISACfdIqNEwA4BCYAdzspFBJwkIAFw0i0ySgTsEJAA2OGsXETASQISACfdIqNEwA4BCYAdzspFBJwkIAFw0i0ySgTsEJAA2OGsXETASQISACfdIqNEwA4BCYAdzspFBJwkIAFw0i0ySgTsEJAA2OGsXETASQISACfdIqNEwA4BCYAdzspFBJwkIAFw0i0ySgTsEJAA2OGsXETASQISACfdIqNEwA4BCYAdzspFBJwkIAFw0i0ySgTsEJAA2OGsXETASQISACfdIqNEwA4BCYAdzspFBJwkIAFw0i0ySgTsEJAA2OGsXETASQISACfdIqNEwA4BCYAdzspFBJwkIAFw0i0ySgTsEJAA2OGsXETASQISACfdIqNEwA4BCYAdzspFBJwkIAFw0i0ySgTsEJAA2OGsXETASQISACfdkj2MOgxg735g9wFgz4Ekm/PlBgrlAwrnB/LmyR5lyalWSgByquczWO7Dh4FFG4DP/wZ+WA5s3gnwdxSD0JArF5ALQP2KwHkNgea1geIFM5ipHosZAQlAzNDGT8IHDwEfzQe+XwIs2Qhs33N0hU+vtPnyAFVKAidUA85tANStkN4T+rsNAhIAG5SzaR5bdwPfLQEm/gRs3BHdQrSuD7Q/ETi2HJAnd3TTVmqRE5AARM4qR8X8cTnQ/2Ng177YFrtxFaDvxUCJQrHNR6mnTEACoDcjGQG2+gM/BeassAemVGGg+5nAOfXVG7BH3eQkAbBN3OH8/loL9JsBrN+eNUZeegJw3WlAMU0WWnOABMAaarcz4gTfY9Oz3sY65YFXOqonYMsTEgBbpB3O571fgTe+A/b/54aR1UsDA9oDZYq6YU88WyEBiGfvRlC2P9cAD70H7NofQWSLUZrVAB5pCxQpYDHTHJiVBCAHOt0v8uINwK0T3AXQpj5w/wVmQ5FCbAhIAGLD1flUubx37zsARcDVkDc30KsVcHFjVy3M/nZJALK/DzNUgsFfARz7ux64g3BoZ6BaKdctzZ72SQCyp98yZfW+/4ArhgD8f2YDd/Fx339Kgd8IcBtxZkPLusBDbTUUyCzHlJ6XAMSCqsNp7j8IPPAu8EdCdIy8sw3QsHLKaTGPQV9mPp/cuYBnLgdOrJ75tJRCcgISgBz2RixaD/SaGL1Cc7kutYrJ3YRcYYhGOL0W8ES7aKSkNEIJSABy2PvwwufAjPnRK7QtAeC5AuO6AWWKRM92paStwDnqHdi5D7j6jehu+LElAHQUzxW497wc5bKYF1Y9gJgjdieDd34GhnwTXXtsCkDRAsDYbgD/rxAdAhKA6HDMFqk8/D7Az3yjGWwKAPcF8DuBY8tHswQ5Oy0JQA7y//WjgIRt0S2wTQGg5Xe0AS5qFN0y5OTUJAA5xPtc/rv89eiO/4nOtgDwJKE+F+QQp1kopgTAAmQXsvj1H+DeKcEsKZAXKJ7OST0PXgAcXyXldH/7B3j2k7Tz3Lk3+YnC6VlYsjDw9k3pxdLfIyUgAYiUVDaPN3ku8OZ3wQrRrLo5riutQJFI7Uw/7gJMb7fhG98C0/+I3C7uOpx6s74SjJxY2jElANEi6Xg6r8wEPvgtmJEnHwP0uyzYM0FjZ+SbhIk9gLI6KyAo6hTjSwCigtH9RNgV51n+QYKrAjDiOn0cFMSPacWVAESLpOPpPD7dHPEdJLgqAMM6AzXLBimJ4qZGQAKQQ96NjGwBdlUARl8PVC6ZQxwX42JKAGIM2JXkR84CJswJZo2rAsBVAK4GKGSegAQg8wyzRQqf/g08l86SXHhBXBSAgvmAD3rpbIBovXQSgGiRdDydjTuBa94MZiQv80xvrH1Ti9Tv+VuwLv2lx3+2mQtGIw11ywODr4k0tuKlR0ACkB6hOPp7+yHAjr3RLZDtnYAdTzK3CClEh4AEIDocs0Uq/5sEsFWOZrAtAM9fCTSuGs0S5Oy0JAA5yP/8FJifBEcz2BQAjv/f7AJUKB7NEuTstCQAOcj/3Jt/T8DvAdLDY1MAqpYC3ugC8LNghegQkABEh2O2SaXHWGDl5uiZa1MAHrwQOLte9GxXSjoSLMe9A+//Crz6VfSKbUsAyhcDRt+g1j96njMpqQcQbaKOp7dxB9B1JPBfFM7rZ1FtCcCVzYCeLRyHmw3NkwBkQ6dl1uSpvwKvRakXkNZ5/T+tAHgMWWZDofzA+G5AsYKZTUnPhxOQAOTQd+Lm8cDSjZkvPA/oTO08gAMHgd2ZvHWY3//ffz7Ai0IVok9AAhB9ptkixV9XAw++B7CSuhyOqwQM7KCxf6x8JAGIFdlskO5b8wCeyONqYO9i6i2uWhcfdkkA4sOPGSrF3gNAvxnA7GUZejzmD2nXX8wRaxUg9ojdzuHQYeCut4E/17hjJ8f9PP677fHu2BSvlqgHEK+eDVAu9gRumxTdDUIBsk8WlROKN54JXNE0oynouSAEJABBaMVx3F37gEEzgS8XZF0h8+cFuNvvjNpZZ0NOy1kCkNM8nkZ5eYw3Tw2aNDf6F4ikh7l2OeCuc1I/WyC95/X3jBGQAGSMW1w/tWwT8MC7wLY9wOHDsS0q7xVo0wC4s01s81HqKROQAOjNSJEAL/SYMR/gWYKZ3cyTGmLeKNT7bKBGGSB3LjkiKwhIALKCejbKc9tuc3PPD8uBhVE4TCRfHuCsOsA5DYBmNXS2X1a/ChKArPZANsp/+SZgys8AdxHu2g/sO5D2R0VczmOFL5wPKFvMLOvxZl+19u44XQLgji+yjSUcHvBSz90HgNVbgHXbzVmDnDNghS9REKhUwvxXojBQrIC5y08V3z0XSwDc84ksEgFrBCQA1lArIxFwj4AEwD2fyCIRsEZAAmANtTISAfcISADc84ksEgFrBCQA1lArIxFwj4AEwD2fyCIRsEZAAmANtTISAfcISADc84ksEgFrBCQA1lArIxFwj4AEwD2fyCIRsEZAAmANtTISAfcISADc84ksEgFrBCQA1lArIxFwj4AEwD2fyCIRsEZAAmANtTISAfcISAAs+GThwoW44oorkC9fPvz444/Inz9/oFznzZuH6667Dq+//jpatEj/juwxY8ZgwIAB+OGHH1C0aNE08zp8+DC++uorvPLKK/j222+9m2IqVqyIjh074oYbbkDjxo0D2ZqVkffu3QuWp1ChQllpRrbKWwJgwV233nqrV3lz587tVcqTTz45UK7ffPMNWrZsiU8//RTnnntuus+++OKLuOuuu/Dvv/+iePHiacZ/++23cdVVV3mi1LlzZ1SvXh2zZs3y8mKYMWMGLrjggnTzdCFC69atsXz5cvz5558oXLiwCyY5b4MEwIKLjjvuOBw4cACLFy/Gww8/jCeffDJQrrESgEWLFuHEE09E8+bNMW7cOFSoUOGIXX/88QcuvPBCVK1a1ROt7BAkAMG9JAEIzizQE//88w+OPfZYvPDCC3jzzTe9LvayZcuQN2/eFNPZtm2b1xVnHFZIvtQLFixItQewYsUKcIjAfKpVq4Y2bdpgxIgREfUAPvvsM5x33nmptvL9+/fH77//jokTJ3q2fvHFF56QnXPOOUfZTzH5+++/PTEpV66cJxpbt2710v/uu+8wf/58bzhyxhlneDz27dvn/Z7PsJdCIWrUqFEyJu+//z4aNmzolYu2kknZsmVxyimnoE6dOkfibty40eu1PPLII1i/fj0GDRqEggUL4tJLLz0Sh0MDcmR51q1b5w1zmGfdunWT5blhwwbMnj0bZ555JpjunDlzsHv3bi/uSSedhFy5cnlpsHz8uX79+l7cPHnyBHovXIksAYixJ/gSTp8+3Xsxf/vtN6/yvPvuu7j88suPypmVhBVk586dR16o//77zxOO7t27HzUE+Pjjj71Wmi8f/zt06BAqVarkjd2feOKJdIcAFJqzzjoLQ4cOxY033ui90GmFW265BZMnT8Zff/3lVaDQcPHFF+Ojjz7yykkB6NChA7788ku89tpr6NKlixf14MGDno0//fQTBg4ciHfeecfL0/89BYHl9wP/9vTTT3tzFEzLLyOZcI7jnnvu8Z5nD4lc+XsGX1z379/v/ZuV/4MPPvDmYRg4FOPvGP/VV19Fr169juT59ddfo1WrVp5gM32m5ds3duxYbNmyBXfccceR3/NvZE3xyY5BAhBDr61duxZVqlTBNddc43Wx+cLVqlULp512Gt56661kOe/Zs8drYcha4+oAAAhaSURBVFatWoVJkyahWbNm3ovHn5966imwZxA6B0DHsfWqWbOmJxCVK1f2KjwrBgWGrW96cwCMwxaMgsOX/bbbbvMqb2ph6tSpXiWi7VdeeeWRaBza0BbOdQwePNj7PQWALTgrNH9XpkwZr+K3b98epUuXBodFFIeSJUvi119/9eYZGJciECoANWrU8Fp8VjCWkS30448/DtrCVp+cOPlHHldffTVWr17t9VQ4EcjhCwP/fdFFF6Ft27be8Iu9CFZkpkMbp0yZ4v2dwReABg0aeD0p+ishIcErN/OoV6+eVx5yp385Wcryc8hEltktSABi6LFp06ahXbt2Xg+ALxhbHVYcdiuXLl2abDWAlZitMFtFVpLQwMm58ePHJxMA/o4vLlcVmjRpkiw+K8XPP/+crgDwIbbY7DHMnDkTbDFZCWkrewaseKFdW1YadseZPltdP7z00ku47777vHKdcMIJRwSA9tEOdp/9cOqpp3rx2BsKXWG45JJLPE4cYvgtOFt3duU5vGC+fqBIchhBGz///PMjv09tDuD888/3KiiHAKGTohQ+lmXz5s2ecFA0fAG4//778cwzzxxJm/lwApai0bdv3yO/Z+/k7LPP9nzh9zBi+EpFPWkJQNSRJiXIFueTTz7xKhlbHQa+KGwdOaZlt9UPnOXnDDZf7vDAys8K7/cA+OKyJWIl4AsbHtiaP//88xEJgP8s5xDY02DLyp4Dx+i0j0uKHFb44d577/W670uWLEHt2uYaXwoGhwWsZP6yI8vIIcGuXbuSmce4/D3FMDRQhEaNGuW18H4vhALASp5SGTt16uT1jlh52aNgSE0AmB57V1zRCA/kRF5cOeB8gy8A7OWwDH6geLBXMHz4cHTr1u3I7+lbDocmTJgA2pTdggQgRh5jReZEFVscto5+YLf+scce815yTuCxheXQgK0tWz62juHBb2V8AfC77pxfGDZs2FHx+ZL26NEjkAD4iXAoQtu5PMjuMisgxcoPtJkVhX+7++67vW4xW+ebbroJL7/88pF4/hwAK2hoCCoA7BWlVEYOddhKsyfFbnpaAkAh4RCCY/XwQDGiTb4gSwCCVYhcCQkJge6P5TguJwS2po8++iiKFClyVHHZzeVkGGeT2ZJTFNj1ZhecXebwwO45W7dQAWBrxBaacwvhIcg+gNR8wRb69ttv9/YvrFy50ht/M3BGnN1mVroPP/zQmyx78MEHvW469xD4IVoCwMlPDo/CAwWIXfFIBIDCeuedd+K55547Kh0OOzj84DwBGUsAgtVOCUAqvNiib9++3VvmCp9d98eT/fr1Q58+fbwU2Jp///333sQSdwyGhiFDhoAz8L4AUEA46cYJNApGePpsNVlp0psE5GQh5xDYkpcvX/6okvjzEozD8viBFZ4Vn8ty7CFwKMIVidAQLQHgRB4FiDP3fqA4cTMV5xF27NjhzRMwpDYE4IQdJxO5khCaDp956KGHQD9wtyaZSgAkAMEIpBCb68xsDdl6sQUND3xp2aJy7MqXm4GVm5NVvXv3TtaV9l9s9gJCVwG4oYjr9OwBhI49Oebm0INCkp4A0DYugXG2+/rrr09mJucAOC/BpUl24wsUKHDk75yD4Kw+W05WfI6je/bsGRMBoBj+8ssv3qqBH7hOz/0GFEWuJPiBKwkUXI7nQ7dAc8zOyVXOUYT2UjjU4QQqxYF7KTgckwAEe/3VA0iBF5fTuFQUPtMdGpVDBI5LWbG57szAFQKuHDzwwAPenn+Ox9944w1PJDhcCBUALn1xYouTd+wOcyjBuQEKQ4kSJbwXOj0BoEhw4xC70axM3NBSrFgxbzKSk3+saLSFQhMeuI/hvffe837NihQ6S8/fRasHwOEGOXDtnSJApv4EJ3s/oflyToA9E5aladOmR0SNrTt7Kmz9OQ/AHgtFjXsMOKdBwfCHOBIACUAwAmGxWenYAvMl4zp1aoEtNbum1157LThmZ2DLynE9X0i2wGz9WLG5WYUrCqxwvlgwPsfd3MfP/3Mika00d95RSFgJuLTFCp1W4PwDl7HYOnJ8z7kJjpn5HIUsdMkrNB3OetN27nHgKkV44MdL/o7G0L/RXgoZ9zWEBu4hYJoUI/YuGDi0ufnmm72JVG5WohCwEnNvBWf0Q3cDMj6HXBQ0f9i1Zs2aI+WnUHKIwDV9zrWQLWfvR48enewDKw7DOCnIFYnLLrvsiIlc6+ewg77giowfuGrBoQMnXrUMGEHVifdJQFZEbiHluLRUqVKpEuE4li8PK5v/wjMyKyArLsWA69J82fnSc7adQ4bQrjjjs1LwpaZgsNvLFpE/s4LxBU9vdx/T8G3mMxQE5kGbaH9qz3N7cNeuXTF37tyj9iEwTfZGWNFCvy/g77mXgPaFLi3y98ybZWF8f5zOvP1uPstIcWXFZZzUPnKi/eTHQBah+xhoD4WAQkf/0IbwSVrGYe+A8yuhXxX6jNi7Cv3QiP7iUmB4/AiqghNRtAzohBuynxFsHbmzj70VvvyxCKECEIv0lSa8hsXfMp0RHpoDyAi1bPoMW0ZuBOIcAXcCci2eKwixChKAWJFNSlcCEHvGcZMDv4A7/fTTvSVDTmJylSN8WS2ahZUARJNmymlJAGLPWDmIgLMEJADOukaGiUDsCUgAYs9YOYiAswQkAM66RoaJQOwJSABiz1g5iICzBCQAzrpGholA7AlIAGLPWDmIgLMEJADOukaGiUDsCUgAYs9YOYiAswQkAM66RoaJQOwJSABiz1g5iICzBCQAzrpGholA7AlIAGLPWDmIgLMErAtALL8ec5ayDBMBRwnwYJrwOxqCmBr4PIAgiSuuCIiA2wQkAG77R9aJQEwJ/B9KhlZJD6StugAAAABJRU5ErkJggg==;" vertex="1" parent="1">
                    <mxGeometry x="580" y="30" width="256" height="520" as="geometry"/>
                </mxCell>
                <mxCell id="7" style="edgeStyle=orthogonalEdgeStyle;html=1;exitX=0.5;exitY=1;exitDx=0;exitDy=0;entryX=0.5;entryY=0;entryDx=0;entryDy=0;" edge="1" parent="1" source="3" target="4">
                    <mxGeometry relative="1" as="geometry"/>
                </mxCell>
                <mxCell id="8" style="edgeStyle=orthogonalEdgeStyle;html=1;exitX=0.5;exitY=1;exitDx=0;exitDy=0;entryX=0.5;entryY=0;entryDx=0;entryDy=0;" edge="1" parent="1" source="3" target="5">
                    <mxGeometry relative="1" as="geometry"/>
                </mxCell>
                <mxCell id="9" style="edgeStyle=orthogonalEdgeStyle;html=1;exitX=0.5;exitY=1;exitDx=0;exitDy=0;entryX=0.5;entryY=0;entryDx=0;entryDy=0;" edge="1" parent="1" source="3" target="6">
                    <mxGeometry relative="1" as="geometry"/>
                </mxCell>
                <mxCell id="3" value="Symptoms Page" style="ellipse;whiteSpace=wrap;html=1;" vertex="1" parent="1">
                    <mxGeometry x="90" y="20" width="80" height="80" as="geometry"/>
                </mxCell>
                <mxCell id="4" value="Nav Bar" style="whiteSpace=wrap;html=1;fillColor=#000033;" vertex="1" parent="1">
                    <mxGeometry x="-120" y="150" width="120" height="60" as="geometry"/>
                </mxCell>
                <mxCell id="16" style="edgeStyle=orthogonalEdgeStyle;html=1;exitX=0.5;exitY=1;exitDx=0;exitDy=0;entryX=0.5;entryY=0;entryDx=0;entryDy=0;" edge="1" parent="1" source="5" target="15">
                    <mxGeometry relative="1" as="geometry"/>
                </mxCell>
                <mxCell id="5" value="Add Button" style="whiteSpace=wrap;html=1;fillColor=#000033;" vertex="1" parent="1">
                    <mxGeometry x="240" y="150" width="120" height="60" as="geometry"/>
                </mxCell>
                <mxCell id="18" style="edgeStyle=orthogonalEdgeStyle;html=1;exitX=0.5;exitY=1;exitDx=0;exitDy=0;entryX=0.5;entryY=0;entryDx=0;entryDy=0;" edge="1" parent="1" source="6" target="10">
                    <mxGeometry relative="1" as="geometry"/>
                </mxCell>
                <mxCell id="6" value="Card Display" style="whiteSpace=wrap;html=1;fillColor=#2A2A2A;" vertex="1" parent="1">
                    <mxGeometry x="70" y="150" width="120" height="60" as="geometry"/>
                </mxCell>
                <mxCell id="19" style="edgeStyle=orthogonalEdgeStyle;html=1;exitX=0.5;exitY=1;exitDx=0;exitDy=0;entryX=0.5;entryY=0;entryDx=0;entryDy=0;" edge="1" parent="1" source="10" target="12">
                    <mxGeometry relative="1" as="geometry"/>
                </mxCell>
                <mxCell id="20" style="edgeStyle=orthogonalEdgeStyle;html=1;exitX=0.5;exitY=1;exitDx=0;exitDy=0;entryX=0.5;entryY=0;entryDx=0;entryDy=0;" edge="1" parent="1" source="10" target="11">
                    <mxGeometry relative="1" as="geometry"/>
                </mxCell>
                <mxCell id="21" style="edgeStyle=orthogonalEdgeStyle;html=1;exitX=0.5;exitY=1;exitDx=0;exitDy=0;entryX=0.5;entryY=0;entryDx=0;entryDy=0;" edge="1" parent="1" source="10" target="13">
                    <mxGeometry relative="1" as="geometry"/>
                </mxCell>
                <mxCell id="10" value="Card" style="whiteSpace=wrap;html=1;fillColor=#2A2A2A;" vertex="1" parent="1">
                    <mxGeometry x="70" y="250" width="120" height="60" as="geometry"/>
                </mxCell>
                <mxCell id="11" value="Delete button" style="whiteSpace=wrap;html=1;fillColor=#000033;" vertex="1" parent="1">
                    <mxGeometry x="-80" y="340" width="120" height="60" as="geometry"/>
                </mxCell>
                <mxCell id="12" value="Name" style="whiteSpace=wrap;html=1;fillColor=#2A2A2A;" vertex="1" parent="1">
                    <mxGeometry x="70" y="340" width="120" height="60" as="geometry"/>
                </mxCell>
                <mxCell id="17" style="edgeStyle=orthogonalEdgeStyle;html=1;exitX=0.5;exitY=1;exitDx=0;exitDy=0;" edge="1" parent="1" source="13" target="14">
                    <mxGeometry relative="1" as="geometry"/>
                </mxCell>
                <mxCell id="13" value="Details button" style="whiteSpace=wrap;html=1;fillColor=#2A2A2A;" vertex="1" parent="1">
                    <mxGeometry x="220" y="340" width="120" height="60" as="geometry"/>
                </mxCell>
                <mxCell id="14" value="Symptom Details Page" style="ellipse;whiteSpace=wrap;html=1;fillColor=#2A2A2A;" vertex="1" parent="1">
                    <mxGeometry x="240" y="450" width="80" height="80" as="geometry"/>
                </mxCell>
                <mxCell id="15" value="Add Symptom Page" style="ellipse;whiteSpace=wrap;html=1;fillColor=#2A2A2A;" vertex="1" parent="1">
                    <mxGeometry x="410" y="230" width="80" height="80" as="geometry"/>
                </mxCell>
                <mxCell id="22" value="Fetch request for all symptoms, &lt;br&gt;save to state" style="text;html=1;resizable=0;autosize=1;align=center;verticalAlign=middle;points=[];fillColor=none;strokeColor=none;rounded=0;" vertex="1" parent="1">
                    <mxGeometry x="180" y="40" width="180" height="30" as="geometry"/>
                </mxCell>
                <mxCell id="23" value="Pass URL down &lt;br&gt;and the array state" style="text;html=1;resizable=0;autosize=1;align=center;verticalAlign=middle;points=[];fillColor=none;strokeColor=none;rounded=0;" vertex="1" parent="1">
                    <mxGeometry x="-200" y="355" width="120" height="30" as="geometry"/>
                </mxCell>
                <mxCell id="24" value="Maps each Object" style="text;html=1;resizable=0;autosize=1;align=center;verticalAlign=middle;points=[];fillColor=none;strokeColor=none;rounded=0;" vertex="1" parent="1">
                    <mxGeometry x="130" y="220" width="110" height="20" as="geometry"/>
                </mxCell>
            </root>
        </mxGraphModel>
    </diagram>
</mxfile>